<svg xmlns="http://www.w3.org/2000/svg" xmlns:xlink="http://www.w3.org/1999/xlink" viewBox="0 0 101.03 49.91"><defs><style>.cls-1{font-size:8px;fill:#b57e10;font-family:Merriweather-Regular, Merriweather;}.cls-2{fill:url(#linear-gradient);}.cls-3{fill:url(#Gradiente_sem_nome_65);}.cls-4{fill:url(#Gradiente_sem_nome_65-2);}.cls-5{fill:url(#Gradiente_sem_nome_65-3);}.cls-6{fill:url(#Gradiente_sem_nome_65-4);}.cls-7{fill:url(#Gradiente_sem_nome_65-5);}.cls-8{fill:url(#Gradiente_sem_nome_65-6);}.cls-9{fill:url(#Gradiente_sem_nome_65-7);}.cls-10{fill:url(#Gradiente_sem_nome_65-8);}</style><linearGradient id="linear-gradient" x1="-362.49" y1="289.62" x2="-269.04" y2="289.62" gradientTransform="translate(317.72 -314.53) rotate(-9.65)" gradientUnits="userSpaceOnUse"><stop offset="0" stop-color="#c8992e"/><stop offset="0.15" stop-color="#b57e10"/><stop offset="0.93" stop-color="#b57e10"/><stop offset="0.94" stop-color="#b98416"/><stop offset="1" stop-color="#cda035"/></linearGradient><linearGradient id="Gradiente_sem_nome_65" x1="5.93" y1="32.38" x2="5.93" y2="15.43" gradientUnits="userSpaceOnUse"><stop offset="0" stop-color="#b57e10"/><stop offset="1" stop-color="#c8992e"/></linearGradient><linearGradient id="Gradiente_sem_nome_65-2" x1="16.44" y1="31.48" x2="16.44" y2="22.97" xlink:href="#Gradiente_sem_nome_65"/><linearGradient id="Gradiente_sem_nome_65-3" x1="26.65" y1="31.2" x2="26.65" y2="23.58" xlink:href="#Gradiente_sem_nome_65"/><linearGradient id="Gradiente_sem_nome_65-4" x1="46.53" y1="32.38" x2="46.53" y2="15.54" xlink:href="#Gradiente_sem_nome_65"/><linearGradient id="Gradiente_sem_nome_65-5" x1="52.65" y1="31.48" x2="52.65" y2="22.97" xlink:href="#Gradiente_sem_nome_65"/><linearGradient id="Gradiente_sem_nome_65-6" x1="58.81" y1="31.16" x2="58.81" y2="19.68" xlink:href="#Gradiente_sem_nome_65"/><linearGradient id="Gradiente_sem_nome_65-7" x1="64.42" y1="31.52" x2="64.42" y2="18.02" xlink:href="#Gradiente_sem_nome_65"/><linearGradient id="Gradiente_sem_nome_65-8" x1="71.23" y1="31.23" x2="71.23" y2="23.16" xlink:href="#Gradiente_sem_nome_65"/></defs><title>Ativo 1</title><g id="Camada_2" data-name="Camada 2"><g id="Layer_1" data-name="Layer 1"><text class="cls-1" transform="translate(26.44 47.73)">Doces e Salgados</text><path class="cls-2" d="M11.5,46.75l.19-.48c.12-.32.33-.78.62-1.38a17.81,17.81,0,0,1,3.36-4.69,19.13,19.13,0,0,1,7.79-4.63A33.8,33.8,0,0,1,35.14,34.2c1.06.06,2.18.14,3.26.25l3.34.3,7,.66c4.8.47,9.85.93,15.07,1.32,1.3.1,2.61.17,3.94.25.66.05,1.32.06,2,.09s1.33.06,2,.06l2,0,2,0c.68,0,1.34,0,2-.07.34,0,.68,0,1-.06l1-.09,1-.09,1-.14,1-.14c.34,0,.67-.13,1-.19l1-.2.23,0,.26-.07.5-.13c.35-.09.64-.2,1-.29s.63-.22.94-.34A19.11,19.11,0,0,0,94.53,31a20.05,20.05,0,0,0,2.57-3.16,19.82,19.82,0,0,0,1.8-3.67,19.37,19.37,0,0,0,1-3.95,19,19,0,0,0,.11-4.06,16.67,16.67,0,0,0-.26-2,17.79,17.79,0,0,0-.5-1.94A16.23,16.23,0,0,0,97.6,8.59,14,14,0,0,0,92,3.47a15.94,15.94,0,0,0-7.13-1.61,22.58,22.58,0,0,0-3.59.28c-.29,0-.59.09-.88.15l-.87.18h-.05s-.07,0,0,0l-.11,0-.23.06-.44.11a7.65,7.65,0,0,0-.84.25l-.76.27-.76.34L76,3.71l-.36.2a7.84,7.84,0,0,0-.69.41,10.42,10.42,0,0,0-2.37,2.05l-.24.29-.23.3-.42.63-.36.66c-.12.21-.21.45-.31.67a10.43,10.43,0,0,0-.74,2.81,10.07,10.07,0,0,0,.09,2.8,4.83,4.83,0,0,0,.14.66c.06.22.09.44.17.65l.21.63.26.6a8.25,8.25,0,0,0,1.4,2.08,6.93,6.93,0,0,0,1.86,1.41,6.61,6.61,0,0,0,3.17.72h.53l.53-.05a10.49,10.49,0,0,0,3.66-1.13,6,6,0,0,0,2.29-2,4.42,4.42,0,0,0,.71-2.17,5.67,5.67,0,0,0-.08-1.48c-.06-.33-.1-.5-.1-.5l.19.48a6.47,6.47,0,0,1,.3,1.5,5,5,0,0,1-.49,2.47,6.73,6.73,0,0,1-2.32,2.54,11.39,11.39,0,0,1-4,1.61l-.57.1-.62.06a9,9,0,0,1-1.28,0,8.35,8.35,0,0,1-2.66-.65,8.14,8.14,0,0,1-2.43-1.64,10.38,10.38,0,0,1-1.84-2.48,10.73,10.73,0,0,1-1-3,11.75,11.75,0,0,1-.18-3.36A12,12,0,0,1,69,8.1c.12-.27.23-.56.37-.83l.45-.8c.16-.26.34-.51.51-.77a3.27,3.27,0,0,1,.28-.37l.3-.36c.1-.12.19-.25.3-.36l.34-.33a8.39,8.39,0,0,1,.68-.65c.25-.2.49-.41.74-.6l.8-.53c.26-.18.55-.31.83-.47L75,1.81l.44-.2.89-.37.94-.31A6.92,6.92,0,0,1,78.2.68l.44-.1.22-.06L79,.5c.09,0,.06,0,.09,0h.06l.94-.16c.32-.06.64-.09,1-.13A24.18,24.18,0,0,1,84.93,0a17.69,17.69,0,0,1,7.78,2.15A15.57,15.57,0,0,1,98.57,8,18.63,18.63,0,0,1,101,16a20.16,20.16,0,0,1-.14,4.25,20.8,20.8,0,0,1-8.7,14.38,22.08,22.08,0,0,1-3.8,2.12c-.33.14-.66.3-1,.42s-.7.27-1,.37l-.5.16-.25.09-.08,0-.06,0-.13,0-1,.28c-.35.08-.7.19-1,.26l-1,.21-1,.2-1,.15a62.14,62.14,0,0,1-8.33.61c-2.74,0-5.45-.06-8.09-.2-5.3-.3-10.38-.86-15.18-1.41l-3.55-.43-3.43-.43-3.32-.42c-1.1-.15-2.13-.26-3.16-.35a39.06,39.06,0,0,0-5.89-.11c-.47,0-.92.07-1.38.11s-.89.1-1.33.17c-.87.12-1.71.3-2.52.49a23.66,23.66,0,0,0-2.29.71,21.44,21.44,0,0,0-2.05.9,16.84,16.84,0,0,0-3.3,2.17A18.23,18.23,0,0,0,14,43.08l-.42.53c-.14.17-.26.34-.38.5-.25.32-.44.63-.62.9-.36.55-.61,1-.78,1.29Z"/><path class="cls-3" d="M2.5,32.38A3.48,3.48,0,0,1,.63,32,1.48,1.48,0,0,1,0,30.62a.15.15,0,0,1,.17-.17,2.41,2.41,0,0,1,.57.1,6.48,6.48,0,0,0,1.47.11,13.92,13.92,0,0,0,3.38-.4,10.27,10.27,0,0,0,2.68-1.08A6,6,0,0,0,10,27.64a2.89,2.89,0,0,0,.63-1.75,1.82,1.82,0,0,0-.5-1.34,3,3,0,0,0-1.29-.77,8.92,8.92,0,0,0-1.74-.36c-.63-.06-1.25-.09-1.87-.09H3.72c-.32,1.09-.63,2.21-.93,3.35S2.19,29,1.87,30a1.66,1.66,0,0,1-1-.32.94.94,0,0,1-.42-.77,2.44,2.44,0,0,1,.08-.53q.09-.32.21-.69c.09-.27.23-.72.43-1.35s.45-1.37.74-2.22.6-1.76,1-2.7.72-1.87,1.1-2.77S4.68,17,5,16.25a6.33,6.33,0,0,0-1.42.43c-.37.18-.66.33-.88.46a1,1,0,0,1-.49.2.59.59,0,0,1-.3-.13,1.62,1.62,0,0,1-.33-.31.48.48,0,0,1-.15-.29,24,24,0,0,1,2.3-.82,10,10,0,0,1,2.89-.36,11.88,11.88,0,0,1,1.61.12A6.33,6.33,0,0,1,10,16a3.25,3.25,0,0,1,1.32,1,2.92,2.92,0,0,1,.51,1.81,3.09,3.09,0,0,1-.41,1.62,3.73,3.73,0,0,1-1.08,1.16,6.39,6.39,0,0,1-1.47.76,12.64,12.64,0,0,1-1.57.47,8.08,8.08,0,0,1,2.28.49,4.35,4.35,0,0,1,1.41.85,2.87,2.87,0,0,1,.72,1,3,3,0,0,1,.21,1,3.87,3.87,0,0,1-.66,2.2,6.31,6.31,0,0,1-1.7,1.72,11,11,0,0,1-2.3,1.23,14.92,14.92,0,0,1-2.48.75A11.17,11.17,0,0,1,2.5,32.38Zm1.39-9.72a14.86,14.86,0,0,0,2.31-.27,7.6,7.6,0,0,0,2.05-.68A4,4,0,0,0,9.73,20.5a3,3,0,0,0,.56-1.83,2.22,2.22,0,0,0-.54-1.61,2.85,2.85,0,0,0-1.38-.78,7.56,7.56,0,0,0-1.82-.22h-.1l-.11,0A30,30,0,0,0,5,19.19C4.63,20.31,4.25,21.47,3.89,22.66Z"/><path class="cls-4" d="M15,31.48a2.66,2.66,0,0,1-2-.72A2.45,2.45,0,0,1,12.31,29a4.76,4.76,0,0,1,.47-2A8,8,0,0,1,14.05,25a7.62,7.62,0,0,1,1.75-1.49A3.62,3.62,0,0,1,17.7,23a1.89,1.89,0,0,1,1,.28,1.13,1.13,0,0,1,.47,1.09,2.61,2.61,0,0,1-.47,1.5,4.9,4.9,0,0,1-1.24,1.25,7.52,7.52,0,0,1-3.56,1.32c0,.09,0,.17,0,.25a3,3,0,0,0,0,.34,3.2,3.2,0,0,0,.05.45,2.19,2.19,0,0,0,.21.57,1.27,1.27,0,0,0,.5.47,1.72,1.72,0,0,0,.88.19,3.63,3.63,0,0,0,1.77-.5,7.18,7.18,0,0,0,1.67-1.34A8,8,0,0,0,20.22,27l.36.3a7.81,7.81,0,0,1-1.45,2.19A6.69,6.69,0,0,1,17.19,31,4.86,4.86,0,0,1,15,31.48Zm-.93-3.72a5.11,5.11,0,0,0,1.24-.43,7,7,0,0,0,1.32-.82,5,5,0,0,0,1-1.08,2,2,0,0,0,.41-1.2A.57.57,0,0,0,18,23.9a.38.38,0,0,0-.3-.11,1.83,1.83,0,0,0-1,.37,6.35,6.35,0,0,0-1,.94,8.44,8.44,0,0,0-.91,1.28A9.29,9.29,0,0,0,14.09,27.76Z"/><path class="cls-5" d="M30.6,31.2a1.4,1.4,0,0,1-1.18-.47A1.74,1.74,0,0,1,29,29.61a3.41,3.41,0,0,1,.15-1l.3-1a2.7,2.7,0,0,0,.16-.88.67.67,0,0,0-.16-.52.49.49,0,0,0-.36-.15c-.34,0-.72.26-1.14.77S27,28.09,26.4,29a9.24,9.24,0,0,0-.61,1.05c-.18.37-.35.68-.51.95a2,2,0,0,1-.46-.07,2.19,2.19,0,0,1-.51-.16c-.15-.08-.22-.17-.22-.28a2.64,2.64,0,0,1,.21-.73c.14-.37.3-.79.48-1.28s.34-1,.47-1.46a4.57,4.57,0,0,0,.2-1.23,1,1,0,0,0-.1-.5.4.4,0,0,0-.36-.17,1.79,1.79,0,0,0-1.07.53,10.1,10.1,0,0,0-1.32,1.4A13.15,13.15,0,0,0,21.3,29a14.63,14.63,0,0,0-1,2.11,2.43,2.43,0,0,1-.55-.08,2.77,2.77,0,0,1-.54-.21c-.16-.09-.23-.16-.23-.23a5.27,5.27,0,0,1,.16-.66c.12-.39.25-.87.41-1.44s.32-1.17.46-1.77.27-1.13.35-1.59a.83.83,0,0,1,.44-.36,1.61,1.61,0,0,1,.65-.17.69.69,0,0,1,.48.17.62.62,0,0,1,.17.46A3.71,3.71,0,0,1,22,26q-.11.49-.27,1.11c.29-.42.61-.84.94-1.25a10.46,10.46,0,0,1,1.06-1.13,5.93,5.93,0,0,1,1.11-.8A2.25,2.25,0,0,1,26,23.58a1,1,0,0,1,1,.53,2.52,2.52,0,0,1,.27,1.17,3.81,3.81,0,0,1-.08.74c-.05.25-.1.49-.16.71s-.14.45-.22.67a9.51,9.51,0,0,1,.9-1.24,4.39,4.39,0,0,1,1.07-.93A2.3,2.3,0,0,1,30,24.88a1.18,1.18,0,0,1,1.07.47,1.89,1.89,0,0,1,.29,1,4.17,4.17,0,0,1-.18,1.17c-.12.41-.24.81-.36,1.18a2.94,2.94,0,0,0-.19,1,.82.82,0,0,0,.11.42.48.48,0,0,0,.45.19,1.59,1.59,0,0,0,1.1-.52,5.85,5.85,0,0,0,1-1.3A14.71,14.71,0,0,0,34,27l.31.38a11.06,11.06,0,0,1-.86,1.77,5.76,5.76,0,0,1-1.24,1.47A2.42,2.42,0,0,1,30.6,31.2Z"/><path class="cls-6" d="M42.65,32.38c-.71-.06-1.17-.23-1.37-.54A1.94,1.94,0,0,1,41,30.7a8.07,8.07,0,0,1,.28-1.87c.19-.73.44-1.51.74-2.35s.63-1.68,1-2.52l-.68.06-.9.1c-.32,0-.63.08-.92.13a1.39,1.39,0,0,1,.47-1A2.6,2.6,0,0,1,42,22.77a7.87,7.87,0,0,1,1.44-.18c.38-1,.76-2,1.15-3s.79-1.88,1.18-2.69l-.33,0H45a5.85,5.85,0,0,0-2,.27,1.75,1.75,0,0,0-1,.8,3,3,0,0,0-.26,1.3,5.28,5.28,0,0,0,.08.93,5.82,5.82,0,0,0,.27.88,2.06,2.06,0,0,1-1.27-.61,1.77,1.77,0,0,1-.38-1.15,2.72,2.72,0,0,1,.79-1.93A5.53,5.53,0,0,1,43.4,16a9,9,0,0,1,3-.48,16.15,16.15,0,0,1,2.2.15,16.53,16.53,0,0,0,2,.14,7.12,7.12,0,0,0,.95-.06,7.59,7.59,0,0,0,1-.21,6.88,6.88,0,0,1-1.52,1.38,2.28,2.28,0,0,1-1.18.36,8,8,0,0,1-1.3-.13c-.52-.1-1.1-.17-1.73-.23-.18.47-.38,1-.59,1.61s-.42,1.26-.65,1.95-.45,1.4-.69,2.11c.73.06,1.39.12,2,.19s1.22.12,1.86.15a1.68,1.68,0,0,1-.46.49,1.65,1.65,0,0,1-.67.26,11.19,11.19,0,0,1-1.16.11c-.49,0-1.12.05-1.91.07-.11.37-.23.77-.35,1.19s-.24.8-.33,1.13-.16.54-.2.64c-.36,1.26-.63,2.32-.8,3.2A12.29,12.29,0,0,0,42.65,32.38Z"/><path class="cls-7" d="M51.22,31.48a2.69,2.69,0,0,1-2-.72A2.45,2.45,0,0,1,48.51,29,4.92,4.92,0,0,1,49,27,8.26,8.26,0,0,1,50.25,25,7.66,7.66,0,0,1,52,23.55a3.59,3.59,0,0,1,1.9-.58,1.86,1.86,0,0,1,1,.28,1.14,1.14,0,0,1,.48,1.09,2.62,2.62,0,0,1-.48,1.5,4.86,4.86,0,0,1-1.23,1.25A7.49,7.49,0,0,1,52,28a7.39,7.39,0,0,1-1.85.43c0,.09,0,.17,0,.25A3,3,0,0,0,50,29a2.32,2.32,0,0,0,.06.45,1.65,1.65,0,0,0,.21.57,1.24,1.24,0,0,0,.49.47,1.74,1.74,0,0,0,.88.19,3.67,3.67,0,0,0,1.78-.5,7.39,7.39,0,0,0,1.67-1.34A8.26,8.26,0,0,0,56.43,27l.35.3a7.6,7.6,0,0,1-1.45,2.19A6.56,6.56,0,0,1,53.39,31,4.82,4.82,0,0,1,51.22,31.48Zm-.92-3.72a5.2,5.2,0,0,0,1.23-.43,6.81,6.81,0,0,0,1.33-.82,5.28,5.28,0,0,0,1-1.08,2.09,2.09,0,0,0,.41-1.2.5.5,0,0,0-.09-.33.34.34,0,0,0-.29-.11,1.81,1.81,0,0,0-1,.37,5.64,5.64,0,0,0-1,.94,7.79,7.79,0,0,0-.91,1.28A7.62,7.62,0,0,0,50.3,27.76Z"/><path class="cls-8" d="M57.56,31.16a1.62,1.62,0,0,1-1.32-.53,2,2,0,0,1-.44-1.32A5.18,5.18,0,0,1,56,28.1a10.77,10.77,0,0,1,.47-1.55,11.74,11.74,0,0,1,.7-1.52A5.62,5.62,0,0,1,58,23.86a1.3,1.3,0,0,1,.89-.45.66.66,0,0,1,.41.14.5.5,0,0,1,.18.43,2,2,0,0,1-.32.83l-.77,1.27a11.66,11.66,0,0,0-.77,1.49,4,4,0,0,0-.32,1.49,1.28,1.28,0,0,0,.25.93,1.07,1.07,0,0,0,.74.23,2.44,2.44,0,0,0,1.54-.72A8.24,8.24,0,0,0,61.55,27l.27.3A7,7,0,0,1,60,30.15,3.6,3.6,0,0,1,57.56,31.16Zm2.5-9.53a1.31,1.31,0,0,1-.68-.19.64.64,0,0,1-.31-.59,1,1,0,0,1,.54-.83,2,2,0,0,1,1.1-.34,1,1,0,0,1,.59.16.68.68,0,0,1,.23.57,1.11,1.11,0,0,1-.46.82A1.51,1.51,0,0,1,60.06,21.63Z"/><path class="cls-9" d="M62.92,31.52A2,2,0,0,1,61.46,31a2.18,2.18,0,0,1-.54-1.62,8.82,8.82,0,0,1,.34-2.19,27.39,27.39,0,0,1,.84-2.69l-.37-.07a1.45,1.45,0,0,1-.37-.11v-.57l.5.06.47,0c.29-.74.61-1.46,1-2.16s.69-1.32,1-1.87a8.11,8.11,0,0,1,1-1.3,1.25,1.25,0,0,1,.8-.48.57.57,0,0,1,.37.14.51.51,0,0,1,.17.42,2.81,2.81,0,0,1-.43,1.19c-.29.52-.64,1.14-1.07,1.85a24.27,24.27,0,0,0-1.23,2.28h.7c.56,0,1.09,0,1.59,0s1-.05,1.53-.11v.59c-.77.08-1.47.14-2.11.19s-1.22.06-1.77.06h-.27a18.92,18.92,0,0,0-.79,2.18,7.68,7.68,0,0,0-.33,2.17,2.12,2.12,0,0,0,.28,1.25,1,1,0,0,0,.88.36,3.29,3.29,0,0,0,2.14-1A8.18,8.18,0,0,0,67.62,27l.29.21a9.38,9.38,0,0,1-1.32,2.21A6.74,6.74,0,0,1,64.86,31,3.67,3.67,0,0,1,62.92,31.52Z"/><path class="cls-10" d="M68.48,31.23a1.37,1.37,0,0,1-1.28-.6,2.58,2.58,0,0,1-.36-1.36,4.64,4.64,0,0,1,.21-1.36,5.9,5.9,0,0,1,.57-1.31,3.79,3.79,0,0,1,.8-1,1.38,1.38,0,0,1,.9-.38,1.32,1.32,0,0,1,.31.05.71.71,0,0,1,.26.14,4.26,4.26,0,0,0-.5.71,10.34,10.34,0,0,0-.48,1,9,9,0,0,0-.36,1.07,4,4,0,0,0-.13,1,1.35,1.35,0,0,0,.17.75.57.57,0,0,0,.54.28,1.76,1.76,0,0,0,1-.45,7.23,7.23,0,0,0,1.1-1.11,3.37,3.37,0,0,1-1-1.31A4.32,4.32,0,0,1,70,25.66a3.11,3.11,0,0,1,.23-1.11,2.54,2.54,0,0,1,.72-1,1.89,1.89,0,0,1,1.26-.4,1.43,1.43,0,0,1,1.23.49,2,2,0,0,1,.34,1.19,4.45,4.45,0,0,1-.41,1.75,12.14,12.14,0,0,1-1,1.86,1.19,1.19,0,0,0,.65.17,2.69,2.69,0,0,0,1.6-.64,2.51,2.51,0,0,0,.67-.91l.33.25a3.09,3.09,0,0,1-1.21,1.5,2.76,2.76,0,0,1-1.48.47,2.47,2.47,0,0,1-.54-.05,2.16,2.16,0,0,1-.51-.16,7.92,7.92,0,0,1-1.6,1.52A3.12,3.12,0,0,1,68.48,31.23ZM71.72,28a8.06,8.06,0,0,0,.87-1.58,4.2,4.2,0,0,0,.34-1.57,1.47,1.47,0,0,0-.15-.76.5.5,0,0,0-.43-.24,1.11,1.11,0,0,0-.84.57,2.43,2.43,0,0,0-.42,1.46A4.89,4.89,0,0,0,71.24,27,2.54,2.54,0,0,0,71.72,28Z"/></g></g></svg>